<svg xmlns="http://www.w3.org/2000/svg" version="1.1" x="0" y="0" width="130" height="50" viewBox="0 0 130 50" enable-background="new 0 0 130 50" xml:space="preserve">
  <path fill="#CF2127" d="M64.5 20.1H61.7c-0.1-0.2-0.2-0.5-0.3-0.9 -0.7 0.8-1.8 1.2-3.3 1.2 -1.1 0-1.9-0.2-2.6-0.7 -0.8-0.6-1.2-1.4-1.2-2.5 0-1.6 0.6-2.6 1.8-3.2 0.6-0.3 1.7-0.5 3.4-0.7 1.2-0.2 1.8-0.5 1.8-1 0-0.4-0.2-0.8-0.6-1.1 -0.4-0.3-0.8-0.4-1.3-0.4 -0.5 0-0.9 0.1-1.3 0.4 -0.4 0.3-0.6 0.7-0.7 1.3h-2.9c0.1-0.9 0.3-1.7 0.7-2.3 0.4-0.6 1-1 1.8-1.3 0.8-0.3 1.6-0.4 2.6-0.4 3.2 0 4.9 1.6 4.9 4.7V20.1zM61.3 14.6c-0.3 0.2-0.8 0.4-1.6 0.6 -0.9 0.2-1.4 0.3-1.7 0.5 -0.5 0.3-0.8 0.7-0.8 1.4 0 0.9 0.5 1.3 1.4 1.3 0.4 0 0.8-0.1 1.3-0.3 0.4-0.2 0.8-0.4 1-0.7 0.3-0.4 0.5-0.9 0.5-1.7 0-0.1 0-0.3 0-0.6C61.3 14.9 61.3 14.7 61.3 14.6z"/>
  <path fill="#CF2127" d="M75.7 20.1H72.7v-6.9c0-0.8-0.1-1.4-0.4-1.7 -0.3-0.4-0.8-0.6-1.6-0.6 -1.6 0-2.3 0.9-2.3 2.6v6.5h-3V8.7h2.9v1.1c0 0.4 0 0.6 0 0.6 0 0 0 0 0 0 0.4-0.6 0.9-1.1 1.5-1.5 0.7-0.4 1.4-0.5 2.1-0.5 1.5 0 2.6 0.6 3.3 1.8 0.3 0.6 0.5 1.3 0.5 2.1V20.1z"/>
  <path fill="#CF2127" d="M87.1 20.1h-3.4l-2.5-5.1 -1.5 1.5v3.6h-3V4.7h3v8.3l3.8-4.3h3.7l-3.8 4.2L87.1 20.1z"/>
  <path fill="#CF2127" d="M91.1 7.3h-3V4.5h3V7.3zM91.1 20.1h-3V8.7h3V20.1z"/>
  <path fill="#CF2127" d="M101.6 14.3c0 1.1-0.1 2-0.2 2.6 -0.2 1-0.5 1.8-1 2.3 -0.8 0.9-2 1.3-3.4 1.3 -0.9 0-1.7-0.2-2.5-0.6 -0.8-0.4-1.4-1-1.7-1.8 -0.3-0.7-0.5-1.5-0.5-2.3V5.6h3v3.1h6.3v2.2h-6.3v4.7c0 0.6 0 1 0.1 1.3 0.2 0.7 0.7 1 1.6 1 0.5 0 0.9-0.1 1.2-0.5 0.4-0.4 0.6-1.4 0.6-2.8v-2.1h2.8V14.3z"/>
  <path fill="#CF2127" d="M65.1 36.6c-0.9 0.8-2.2 1.2-3.6 1.2h-6.8V22.4h6.9c1.4 0 2.6 0.3 3.6 1 0.9 0.6 1.6 1.5 2 2.7 0.4 1.1 0.6 2.3 0.6 3.6 0 1.4-0.2 2.7-0.7 3.9C66.6 34.9 66 35.9 65.1 36.6zM63.1 25.7c-0.6-0.5-1.6-0.7-3-0.7 -0.3 0-0.7 0-1.2 0 -0.5 0-0.8 0-1 0v10.1h3.2c1.1 0 2-0.6 2.7-1.7 0.6-1 0.9-2.2 0.9-3.6C64.5 27.9 64.1 26.5 63.1 25.7z"/>
  <path fill="#CF2127" d="M78.9 32.9H71c0.1 0.9 0.4 1.7 0.9 2.2 0.5 0.4 1 0.6 1.7 0.6 0.5 0 0.9-0.1 1.3-0.3 0.4-0.2 0.6-0.5 0.8-0.9h3.1c-0.3 1.2-1 2.1-1.8 2.7s-1.9 1-3.2 1c-3.8 0-5.7-2.1-5.7-6.2 0-1.8 0.5-3.2 1.4-4.2 1-1 2.3-1.6 4.1-1.6C77.1 26.1 78.9 28.4 78.9 32.9zM75.8 31c-0.1-0.8-0.3-1.4-0.8-1.8 -0.5-0.4-1-0.7-1.6-0.7 -0.6 0-1.1 0.2-1.5 0.6 -0.5 0.4-0.7 1.1-0.9 1.9H75.8z"/>
  <path fill="#CF2127" d="M90 34.2c0 0.8-0.2 1.5-0.6 2.1 -0.9 1.2-2.3 1.9-4.5 1.9 -1.4 0-2.7-0.3-3.7-1 -1.1-0.7-1.7-1.7-1.7-3h3.1c0 0.6 0.2 1 0.7 1.3 0.4 0.3 1 0.4 1.6 0.4 0.6 0 1-0.1 1.4-0.3 0.4-0.2 0.6-0.5 0.6-0.9 0-0.5-0.6-0.8-1.8-1.1 -1.8-0.4-2.9-0.7-3.4-1 -1.2-0.6-1.8-1.5-1.8-2.7 0-0.7 0.2-1.4 0.5-2 0.3-0.6 0.9-1.1 1.7-1.4 0.8-0.4 1.7-0.5 2.6-0.5 1.3 0 2.4 0.3 3.2 0.9 1 0.7 1.5 1.7 1.6 2.9h-3c-0.2-1-0.8-1.5-2-1.5 -0.5 0-0.9 0.1-1.3 0.3 -0.4 0.2-0.5 0.5-0.5 0.8 0 0.4 0.6 0.8 1.9 1.1 1.8 0.4 2.9 0.7 3.5 1C89.4 32.1 90 33 90 34.2z"/>
  <path fill="#CF2127" d="M93.6 25h-3V22.2h3V25zM93.6 37.8h-3V26.4h3V37.8z"/>
  <path fill="#CF2127" d="M105.9 38.5c0 1.5-0.6 2.7-1.8 3.6 -1.1 0.8-2.4 1.2-3.9 1.2 -1.5 0-2.8-0.4-3.8-1.2 -1.1-0.9-1.7-2.1-1.7-3.7h2.8c0 0.7 0.3 1.3 0.8 1.7 0.5 0.4 1 0.6 1.7 0.6 0.8 0 1.4-0.2 2-0.6 0.6-0.5 0.9-1.1 0.9-1.9v-1.8c-0.2 0.5-0.6 0.9-1.2 1.2s-1.2 0.4-2 0.4c-1.2 0-2.2-0.3-3.1-1 -1-0.8-1.6-1.8-1.8-3.1 -0.1-1-0.2-1.7-0.2-2.2 0-1 0.2-1.9 0.6-2.9 0.4-0.9 1-1.5 1.8-2 0.8-0.5 1.7-0.7 2.5-0.7 1.4 0 2.5 0.6 3.2 1.8 0 0 0 0 0 0 0 0 0-0.2 0-0.5v-0.9h3V38.5zM103 32.4c0-2.5-0.9-3.7-2.6-3.7 -1.7 0-2.6 1.2-2.6 3.5 0 1.1 0.3 2 0.8 2.6 0.5 0.6 1.1 0.9 1.8 0.9 0.7 0 1.3-0.3 1.8-0.8C102.7 34.2 103 33.4 103 32.4z"/>
  <path fill="#CF2127" d="M117.3 37.8h-3v-6.9c0-0.8-0.1-1.4-0.4-1.7 -0.3-0.4-0.8-0.6-1.6-0.6 -1.6 0-2.3 0.9-2.3 2.6v6.5h-3V26.4h2.9v1.1c0 0.4 0 0.6 0 0.6 0 0 0 0 0 0 0.4-0.6 0.9-1.1 1.5-1.5 0.7-0.4 1.4-0.5 2.1-0.5 1.5 0 2.6 0.6 3.3 1.8 0.3 0.6 0.5 1.3 0.5 2.1V37.8z"/>
  <path fill="#CF2127" d="M128.5 34.2c0 0.8-0.2 1.5-0.6 2.1 -0.9 1.2-2.3 1.9-4.5 1.9 -1.4 0-2.7-0.3-3.7-1 -1.1-0.7-1.7-1.7-1.7-3h3.1c0 0.6 0.2 1 0.7 1.3 0.4 0.3 1 0.4 1.6 0.4 0.6 0 1-0.1 1.4-0.3 0.4-0.2 0.6-0.5 0.6-0.9 0-0.5-0.6-0.8-1.8-1.1 -1.8-0.4-2.9-0.7-3.4-1 -1.2-0.6-1.8-1.5-1.8-2.7 0-0.7 0.2-1.4 0.5-2 0.3-0.6 0.9-1.1 1.7-1.4 0.8-0.4 1.7-0.5 2.6-0.5 1.3 0 2.4 0.3 3.2 0.9 1 0.7 1.5 1.7 1.6 2.9h-3c-0.2-1-0.8-1.5-2-1.5 -0.5 0-0.9 0.1-1.3 0.3 -0.4 0.2-0.5 0.5-0.5 0.8 0 0.4 0.6 0.8 1.9 1.1 1.8 0.4 2.9 0.7 3.5 1C127.9 32.1 128.5 33 128.5 34.2z"/>
  <path fill="#CF2127" d="M124.4 20.9h-1.1v3h-0.8v-3h-1.1v-0.6h2.9V20.9z"/>
  <path fill="#CF2127" d="M127.6 23.9h-0.7V21.5l-0.7 2.5h-0.7l-0.7-2.5v2.5h-0.7v-3.6h1.1l0.6 2.7 0 0 0.7-2.7h1.1V23.9z"/>
  <path fill="#CF2127" d="M43.1 15.8c0.2 6.6-1.2 12.8-6.9 14.8 -4.3 1.5-10.9 1-10.5-5.1 0.1-1.4 0.5-2.7 1.2-3.5C29.9 18.1 39.9 18.9 43.1 15.8L43.1 15.8zM15.9 0.3c-0.5 1.2-1.2 4.3-1.1 6.8l11.5 0c0.6-2.4 1.1-4 2.8-5.4 3.6-2.9 12.4-1.8 13.6 2 1.9 6-5.4 6.3-10.3 7.1 -11 1.7-20.1 4.3-19.1 17.8 0.2 3.1 1.6 6 3.4 7.8 5.8 6 21.6 4.5 26.6-1.6l0.6 4.2h5.3c-4.1 6.4-11.9 10.3-19.4 11 -17.3 1.6-31.7-14.2-27.6-32C4.2 9.6 9 4 15.9 0.3L15.9 0.3z"/>
</svg>